{"title":"The Twilight Saga_ Breaking Dawn - Part 2 (2012) TS Xvid UnKnOwN","uid":7838383,"size":1276600058,"categoryP":"video","categoryS":"movies","magnet":"?xt=urn:btih:7d7793a29336c2e919e2e28f7eb7ad8f5e8ec348&amp;dn=The+Twilight+Saga_+Breaking+Dawn+-+Part+2+%282012%29+TS+Xvid+UnKnOwN&amp;tr=udp%3A%2F%2Ftracker.openbittorrent.com%3A80&amp;tr=udp%3A%2F%2Fopen.demonii.com%3A1337&amp;tr=udp%3A%2F%2Ftracker.coppersurfer.tk%3A6969&amp;tr=udp%3A%2F%2Fexodus.desync.com%3A6969","seeders":1,"leechers":0,"uploader":"xxxlavalxxx","files":6,"time":1353262191,"description":" &lt;a href=&quot;http://bayimg.com/aAGgkAaeb&quot; rel=&quot;nofollow&quot; target=&quot;_NEW&quot;&gt;http://bayimg.com/aAGgkAaeb&lt;/a&gt;\n &lt;a href=&quot;\nhttp://www.imdb.com/title/tt1673434/&quot; rel=&quot;nofollow&quot; target=&quot;_NEW&quot;&gt;\nhttp://www.imdb.com/title/tt1673434/&lt;/a&gt;\n\nPlot:After the birth of Renesmee, the Cullens gather other vampire clans in order to protect the child from a false allegation that puts the family in front of the Volturi.\n \n\n\nDirector: \nBill Condon\n\n Writers: \nMelissa Rosenberg (screenplay), Stephenie Meyer (novel)\n \nStars:\n Kristen Stewart, Robert Pattinson and Taylor Lautner\n\nGenres:\n Adventure | Drama | Fantasy | Romance\n\n\n\n\nFormat                                   : AVI\nFormat/Info                              : Audio Video Interleave\nFile size                                : 1.17 GiB\nDuration                                 : 1h 44mn\nOverall bit rate                         : 1 605 Kbps\n\nVideo\nID                                       : 0\nFormat                                   : MPEG-4 Visual\nFormat profile                           : Advanced Simple@L5\nFormat settings, BVOP                    : 2\nFormat settings, QPel                    : No\nFormat settings, GMC                     : No warppoints\nFormat settings, Matrix                  : Default (H.263)\nMuxing mode                              : Packed bitstream\nCodec ID                                 : XVID\nCodec ID/Hint                            : XviD\nDuration                                 : 1h 44mn\nBit rate                                 : 1 402 Kbps\nWidth                                    : 680 pixels\nHeight                                   : 308 pixels\nDisplay aspect ratio                     : 2.2:1\nFrame rate                               : 23.976 fps\nColor space                              : YUV\nChroma subsampling                       : 4:2:0\nBit depth                                : 8 bits\nScan type                                : Progressive\nCompression mode                         : Lossy\nBits/(Pixel*Frame)                       : 0.279\nStream size                              : 1.02 GiB (87%)\nWriting library                          : XviD 64\n\nAudio\nID                                       : 1\nFormat                                   : AC-3\nFormat/Info                              : Audio Coding 3\nMode extension                           : CM (complete main)\nFormat settings, Endianness              : Big\nCodec ID                                 : 2000\nDuration                                 : 1h 44mn\nSource duration                          : 1h 44mn\nBit rate mode                            : Constant\nBit rate                                 : 192 Kbps\nChannel(s)                               : 2 channels\nChannel positions                        : Front: L R\nSampling rate                            : 48.0 KHz\nBit depth                                : 16 bits\nCompression mode                         : Lossy\nStream size                              : 143 MiB (12%)\nAlignment                                : Aligned on interleaves\nInterleave, duration                     : 32 ms (0.77 video frame)\n\n &lt;a href=&quot;\nhttp://bayimg.com/AAGGeaAEB&quot; rel=&quot;nofollow&quot; target=&quot;_NEW&quot;&gt;\nhttp://bayimg.com/AAGGeaAEB&lt;/a&gt; &lt;a href=&quot;\nhttp://bayimg.com/aagggAaeb&quot; rel=&quot;nofollow&quot; target=&quot;_NEW&quot;&gt;\nhttp://bayimg.com/aagggAaeb&lt;/a&gt; &lt;a href=&quot;\nhttp://bayimg.com/AAGGIaAeb&quot; rel=&quot;nofollow&quot; target=&quot;_NEW&quot;&gt;\nhttp://bayimg.com/AAGGIaAeb&lt;/a&gt;","torrent":{"xt":"urn:btih:7d7793a29336c2e919e2e28f7eb7ad8f5e8ec348","amp;dn":"The+Twilight+Saga_+Breaking+Dawn+-+Part+2+%282012%29+TS+Xvid+UnKnOwN","amp;tr":["udp%3A%2F%2Ftracker.openbittorrent.com%3A80","udp%3A%2F%2Fopen.demonii.com%3A1337","udp%3A%2F%2Ftracker.coppersurfer.tk%3A6969","udp%3A%2F%2Fexodus.desync.com%3A6969"],"infoHash":"7d7793a29336c2e919e2e28f7eb7ad8f5e8ec348","infoHashBuffer":{"type":"Buffer","data":[125,119,147,162,147,54,194,233,25,226,226,143,126,183,173,143,94,142,195,72]},"announce":[],"urlList":[]}}